# xmcd CD database file
# Copyright (C) 1993-1998 Ti Kan
#
# Track frame offsets:
#	182
#	14000
#	26210
#	37200
#	48517
#	60762
#	76165
#	89535
#	104277
#	115195
#	128355
#	139790
#
# Disc length: 2023 seconds
#
# Revision: 1
# Processed by: cddbd v1.4b41PL1 Copyright (c) Steve Scherf et al.
# Submitted via: CDmax 1.5
#
DISCID=9907e50c
DTITLE=Glen Campbell - All-Time Greatest Hits [CD1 of 3)
DYEAR=1900
DGENRE=
TTITLE0=Rhinestone Cowboy
TTITLE1=By The Time I Get To Phoenix
TTITLE2=It's Only Make Believe
TTITLE3=Burning Bridges
TTITLE4=I Wanna Live
TTITLE5=I'm Gonna Love You
TTITLE6=Southern Nights
TTITLE7=Houston (I'm Comin' To See You)
TTITLE8=Try A Little Kindness
TTITLE9=Where's The Playground Susie
TTITLE10=Hey Little One
TTITLE11=Manhattan Kansas
EXTD=
EXTT0=
EXTT1=
EXTT2=
EXTT3=
EXTT4=
EXTT5=
EXTT6=
EXTT7=
EXTT8=
EXTT9=
EXTT10=
EXTT11=
PLAYORDER=
